<svg width="32" height="32" viewBox="0 0 32 32" fill="none" xmlns="http://www.w3.org/2000/svg">
<path d="M25.8462 1.23077C25.8462 1.23077 20.2646 0 16 0C11.7354 0 6.15385 1.23077 6.15385 1.23077C5.20369 3.61846 2.45292 4.92308 0 4.92308C0 24.2154 11.088 29.5372 16 32C20.912 29.5372 32 24.2154 32 4.92308C29.5471 4.92308 26.7963 3.61846 25.8462 1.23077Z" fill="#CC754B"/>
<path d="M16 0.307692C19.7883 0.307692 24.6929 1.30215 25.6246 1.49785C26.6905 3.94831 29.4338 5.12492 31.6923 5.22338C31.5815 23.8548 21.0942 29.1052 16.0394 31.6357L16 31.6554L15.9618 31.6357C10.9083 29.1052 0.420923 23.8548 0.308923 5.22338C2.56738 5.12492 5.30954 3.94831 6.37662 1.49785C7.30708 1.30215 12.2117 0.307692 16 0.307692ZM16 0C11.7354 0 6.15385 1.23077 6.15385 1.23077C5.20369 3.61846 2.45292 4.92308 0 4.92308C0 24.2154 11.088 29.5372 16 32C20.912 29.5372 32 24.2154 32 4.92308C29.5471 4.92308 26.7963 3.61846 25.8462 1.23077C25.8462 1.23077 20.2646 0 16 0Z" fill="url(#paint0_linear_47_3575)"/>
<path d="M16 2.8295V14.7692H4.09233C3.37726 12.4677 2.93664 9.88673 2.93664 6.97719C5.05603 6.68427 7.71818 5.37965 8.74464 3.69227C8.74464 3.69227 12.7163 2.8295 16 2.8295ZM16 14.7692V28.6609C19.7465 27.0018 25.541 22.5797 27.9926 14.7692H16Z" fill="#FDF7F5"/>
<path d="M4.09229 14.7692H16V28.6609C12.2535 27.0018 6.5169 22.5784 4.09229 14.7692ZM23.2554 3.69227C23.2554 3.69227 19.1471 2.8295 16 2.8295V14.7692H27.9926C28.7151 12.4677 29.1606 9.88673 29.1606 6.97719C27.0412 6.68427 24.2818 5.37965 23.2554 3.69227Z" fill="#F6CBB7"/>
<path d="M29.2025 6.67196C27.1766 6.39134 24.4973 5.13965 23.5188 3.53227L23.4499 3.41904L23.3194 3.39196C23.2776 3.38211 19.1422 2.5218 16 2.5218C12.7213 2.5218 8.71879 3.38334 8.67941 3.39196L8.55018 3.41904L8.48126 3.53227C7.49664 5.1495 4.86772 6.39873 2.89479 6.67196L2.62895 6.70888V6.97719C2.62895 18.8603 9.76372 26.2363 15.8745 28.9415L16 28.9969L16.1243 28.9415C22.2794 26.2166 29.4671 18.8283 29.4671 6.97719V6.70888L29.2025 6.67196ZM16 28.6609C11.1496 26.5132 2.93787 19.7575 2.93787 6.97719C5.05603 6.68427 7.71818 5.37965 8.74464 3.69227C8.74464 3.69227 12.7163 2.8295 16 2.8295C19.1471 2.8295 23.2554 3.69227 23.2554 3.69227C24.2819 5.37965 27.0413 6.68427 29.1606 6.97719C29.1606 19.7575 20.8505 26.5132 16 28.6609Z" fill="url(#paint1_linear_47_3575)"/>
<defs>
<linearGradient id="paint0_linear_47_3575" x1="16" y1="0" x2="16" y2="32" gradientUnits="userSpaceOnUse">
<stop stop-opacity="0.02"/>
<stop offset="1" stop-opacity="0.15"/>
</linearGradient>
<linearGradient id="paint1_linear_47_3575" x1="16.0493" y1="2.52057" x2="16.0493" y2="28.9969" gradientUnits="userSpaceOnUse">
<stop stop-opacity="0.02"/>
<stop offset="1" stop-opacity="0.15"/>
</linearGradient>
</defs>
</svg>
