<svg width="36" height="41"  viewBox="0 0 36 41" fill="none" xmlns="http://www.w3.org/2000/svg">
<path d="M27.9704 10.486C27.9704 5.05076 23.5485 0.628906 18.1133 0.628906C12.678 0.628906 8.25614 5.05076 8.25614 10.486H0.863281V33.8968C0.863281 37.2992 3.62151 40.0575 7.024 40.0575H29.2026C32.6051 40.0575 35.3633 37.2992 35.3633 33.8968V10.486H27.9704ZM18.1133 4.32533C21.5103 4.32533 24.274 7.08903 24.274 10.486H11.9526C11.9526 7.08903 14.7163 4.32533 18.1133 4.32533ZM31.6669 33.8968C31.6669 35.2556 30.5614 36.361 29.2026 36.361H7.024C5.66517 36.361 4.55971 35.2556 4.55971 33.8968V14.1825H8.25614V17.2628C8.25614 18.2836 9.0836 19.111 10.1044 19.111C11.1251 19.111 11.9526 18.2836 11.9526 17.2628V14.1825H24.274V17.2628C24.274 18.2836 25.1015 19.111 26.1222 19.111C27.143 19.111 27.9704 18.2836 27.9704 17.2628V14.1825H31.6669V33.8968Z" fill="black" stroke="black" stroke-width="0.0770089"></path>
</svg>