<svg width="116" height="20" viewBox="0 0 116 20" fill="none" xmlns="http://www.w3.org/2000/svg">
<g clip-path="url(#clip0_43_1828)">
<path d="M9.07088 0.862344C9.41462 0.0458846 10.5854 0.0458857 10.9291 0.862346L12.9579 5.68123C13.1029 6.02543 13.4306 6.26061 13.8067 6.2904L19.0727 6.70748C19.9649 6.77814 20.3267 7.87813 19.6469 8.4534L15.6348 11.8487C15.3482 12.0912 15.223 12.4718 15.3106 12.8343L16.5363 17.911C16.744 18.7711 15.7969 19.451 15.033 18.9901L10.5245 16.2696C10.2025 16.0752 9.7975 16.0752 9.47548 16.2696L4.96699 18.9901C4.20311 19.451 3.25596 18.7711 3.46363 17.911L4.68942 12.8343C4.77698 12.4718 4.65182 12.0912 4.36526 11.8487L0.353062 8.4534C-0.326718 7.87813 0.0350679 6.77814 0.927291 6.70748L6.19336 6.2904C6.5695 6.26061 6.89716 6.02543 7.04207 5.68123L9.07088 0.862344Z" fill="#FF5F00"/>
<path d="M33.0708 0.862344C33.4146 0.0458846 34.5853 0.0458857 34.9291 0.862346L36.9578 5.68123C37.1028 6.02543 37.4305 6.26061 37.8066 6.2904L43.0726 6.70748C43.9648 6.77814 44.3266 7.87813 43.6468 8.4534L39.6347 11.8487C39.3482 12.0912 39.223 12.4718 39.3105 12.8343L40.5363 17.911C40.744 18.7711 39.7968 19.451 39.033 18.9901L34.5245 16.2696C34.2025 16.0752 33.7975 16.0752 33.4754 16.2696L28.9669 18.9901C28.2031 19.451 27.2559 18.7711 27.4636 17.911L28.6894 12.8343C28.7769 12.4718 28.6518 12.0912 28.3652 11.8487L24.353 8.4534C23.6732 7.87813 24.035 6.77814 24.9272 6.70748L30.1933 6.2904C30.5695 6.26061 30.8971 6.02543 31.042 5.68123L33.0708 0.862344Z" fill="#FF5F00"/>
<path d="M57.0708 0.862344C57.4145 0.0458846 58.5853 0.0458857 58.929 0.862346L60.9578 5.68123C61.1028 6.02543 61.4305 6.26061 61.8066 6.2904L67.0726 6.70748C67.9648 6.77814 68.3266 7.87813 67.6468 8.4534L63.6347 11.8487C63.3481 12.0912 63.2229 12.4718 63.3105 12.8343L64.5362 17.911C64.7439 18.7711 63.7968 19.451 63.0329 18.9901L58.5244 16.2696C58.2024 16.0752 57.7974 16.0752 57.4754 16.2696L52.9669 18.9901C52.203 19.451 51.2559 18.7711 51.4635 17.911L52.6893 12.8343C52.7769 12.4718 52.6517 12.0912 52.3652 11.8487L48.353 8.4534C47.6732 7.87813 48.035 6.77814 48.9272 6.70748L54.1933 6.2904C54.5694 6.26061 54.8971 6.02543 55.042 5.68123L57.0708 0.862344Z" fill="#FF5F00"/>
<path d="M81.0707 0.862344C81.4145 0.0458846 82.5852 0.0458857 82.929 0.862346L84.9577 5.68123C85.1027 6.02543 85.4304 6.26061 85.8065 6.2904L91.0725 6.70748C91.9647 6.77814 92.3265 7.87813 91.6467 8.4534L87.6346 11.8487C87.3481 12.0912 87.2228 12.4718 87.3104 12.8343L88.5362 17.911C88.7438 18.7711 87.7967 19.451 87.0328 18.9901L82.5244 16.2696C82.2023 16.0752 81.7973 16.0752 81.4753 16.2696L76.9668 18.9901C76.203 19.451 75.2558 18.7711 75.4635 17.911L76.6893 12.8343C76.7768 12.4718 76.6517 12.0912 76.3651 11.8487L72.3529 8.4534C71.6731 7.87813 72.0349 6.77814 72.9271 6.70748L78.1932 6.2904C78.5693 6.26061 78.897 6.02543 79.0419 5.68123L81.0707 0.862344Z" fill="#FF5F00"/>
<path d="M105.071 0.862344C105.414 0.0458846 106.585 0.0458857 106.929 0.862346L108.958 5.68123C109.103 6.02543 109.43 6.26061 109.806 6.2904L115.072 6.70748C115.965 6.77814 116.326 7.87813 115.647 8.4534L111.635 11.8487C111.348 12.0912 111.223 12.4718 111.31 12.8343L112.536 17.911C112.744 18.7711 111.797 19.451 111.033 18.9901L106.524 16.2696C106.202 16.0752 105.797 16.0752 105.475 16.2696L100.967 18.9901C100.203 19.451 99.2558 18.7711 99.4634 17.911L100.689 12.8343C100.777 12.4718 100.652 12.0912 100.365 11.8487L96.3529 8.4534C95.6731 7.87813 96.0349 6.77814 96.9271 6.70748L102.193 6.2904C102.569 6.26061 102.897 6.02543 103.042 5.68123L105.071 0.862344Z" fill="#FF5F00"/>
</g>
<defs>
<clipPath id="clip0_43_1828">
<rect width="116" height="18.8889" fill="white" transform="translate(0 0.25)"/>
</clipPath>
</defs>
</svg>